<svg width="26" height="26" xmlns="http://www.w3.org/2000/svg" xmlns:svg="http://www.w3.org/2000/svg">
 <defs>
  <linearGradient id="paint0_linear_332_1499" x1="1" x2="0.9809" y1="0.058367" y2="1.740067">
   <stop stop-color="#11AE88"/>
   <stop offset="1" stop-color="#2A84EE"/>
  </linearGradient>
 </defs>
 <g class="layer">
  <title>Layer 1</title>
  <path d="m25.070423,13c0,6.6274 -5.3726,12 -12,12c-6.62742,0 -12,-5.3726 -12,-12c0,-6.62742 5.37258,-12 12,-12c6.6274,0 12,5.37258 12,12z" fill="#000000" fill-opacity="0" id="svg_1" stroke="#2A84EE" stroke-width="2"/>
  <path d="m17.5,12.0629l-1.4647,-1.5629l-3.0377,2.9952l-3.03292,-2.9952l-1.46468,1.5629l3.7677,3.7161l0.7299,0.721l0.7347,-0.721l3.7677,-3.7161z" fill="black" id="svg_2"/>
  <path d="m17.5,12.0629l-1.4647,-1.5629l-3.0377,2.9952l-3.03292,-2.9952l-1.46468,1.5629l3.7677,3.7161l0.7299,0.721l0.7347,-0.721l3.7677,-3.7161z" fill="url(#paint0_linear_332_1499)" id="svg_3"/>
  <path d="m17.5,12.0629l-1.4647,-1.5629l-3.0377,2.9952l-3.03292,-2.9952l-1.46468,1.5629l3.7677,3.7161l0.7299,0.721l0.7347,-0.721l3.7677,-3.7161z" fill="#2A84EE" id="svg_4"/>
 </g>
</svg>