<?xml version="1.0" encoding="UTF-8" standalone="no"?>
<svg
   width="42"
   height="42"
   viewBox="0 0 42 42"
   fill="none"
   version="1.1"
   id="svg3"
   sodipodi:docname="close.svg"
   inkscape:version="1.3.2 (091e20e, 2023-11-25, custom)"
   xmlns:inkscape="http://www.inkscape.org/namespaces/inkscape"
   xmlns:sodipodi="http://sodipodi.sourceforge.net/DTD/sodipodi-0.dtd"
   xmlns="http://www.w3.org/2000/svg"
   xmlns:svg="http://www.w3.org/2000/svg">
  <defs
     id="defs3" />
  <sodipodi:namedview
     id="namedview3"
     pagecolor="#ffffff"
     bordercolor="#000000"
     borderopacity="0.25"
     inkscape:showpageshadow="2"
     inkscape:pageopacity="0.0"
     inkscape:pagecheckerboard="0"
     inkscape:deskcolor="#d1d1d1"
     inkscape:zoom="9.6785714"
     inkscape:cx="11.313653"
     inkscape:cy="26.501845"
     inkscape:window-width="1920"
     inkscape:window-height="1009"
     inkscape:window-x="-8"
     inkscape:window-y="-8"
     inkscape:window-maximized="1"
     inkscape:current-layer="svg3" />
  <path
     d="M 41,21 C 41,32.0457 32.0457,41 21,41 9.9543,41 1,32.0457 1,21 1,9.9543 9.9543,1 21,1 32.0457,1 41,9.9543 41,21 Z"
     stroke="#2a84ee"
     stroke-width="2"
     id="path1"
     style="display:inline" />
  <path
     fill-rule="evenodd"
     clip-rule="evenodd"
     d="m 17.229,26.6568 9.4281,-9.4281 c 0.5204,-0.5204 0.5204,-1.3652 0,-1.8856 -0.5204,-0.5204 -1.3652,-0.5204 -1.8856,0 l -9.4281,9.4281 c -0.5204,0.5204 -0.5204,1.3652 0,1.8856 0.5204,0.5204 1.3652,0.5204 1.8856,0 z"
     fill="#2a84ee"
     id="path2"
     style="display:inline" />
  <path
     fill-rule="evenodd"
     clip-rule="evenodd"
     d="M 26.6571,24.7713 17.229,15.3432 c -0.5204,-0.5204 -1.3652,-0.5204 -1.8856,0 -0.5204,0.5204 -0.5204,1.3652 0,1.8856 l 9.4281,9.4281 c 0.5204,0.5204 1.3652,0.5204 1.8856,0 0.5204,-0.5204 0.5204,-1.3652 0,-1.8856 z"
     fill="#2a84ee"
     id="path3"
     style="display:inline" />
</svg>
